<svg xmlns="http://www.w3.org/2000/svg" width="40" height="40" fill="currentColor" viewBox="0 0 40 40">
  <g clip-path="url(#a)">
    <path fill="#1565ED" d="M26.933 1.212 7.478 4.416a20.037 20.037 0 0 0-5.758 7.439l33.05-5.437a19.902 19.902 0 0 0-7.838-5.206ZM38.21 11.424.16 17.462c-.09.75-.16 1.752-.16 2.543 0 1.422.15 2.803.43 4.135l39.56-6.528a19.678 19.678 0 0 0-1.78-6.178M5.829 34.113l32.242-5.307H2.039c.97 1.962 2.23 3.775 3.78 5.307"/>
    <path fill="#B3CFFF" d="M5.359 6.398H34.79C31.122 2.473 25.914.01 20.135 0h-.11A20.052 20.052 0 0 0 5.369 6.398m29.422 27.204H5.36C9.018 37.527 14.226 39.99 20.015 40h.11c5.788-.02 10.987-2.473 14.656-6.398h.01Zm5.179-11.204H.14a19.51 19.51 0 0 0 1.67 5.877c.07.15.11.28.18.43.01.02.02.07.03.09h36.02c.13-.26.25-.52.36-.78 0-.01.01-.01.01-.02.22-.52.43-1.051.62-1.592.01-.02.01-.03.02-.07.17-.52.33-1.041.46-1.592.01-.03.02-.09.03-.12.13-.53.24-1.072.32-1.612.01-.03.01-.09.02-.12.02-.16.06-.32.08-.481h-.01l.02-.01ZM.14 17.602h39.85a19.623 19.623 0 0 0-1.89-6.388H2.04a19.397 19.397 0 0 0-1.9 6.388Z"/>
  </g>
  <defs>
    <clipPath id="a">
      <path fill="#fff" d="M0 0h40v40H0z"/>
    </clipPath>
  </defs>
</svg>
